<svg xmlns="http://www.w3.org/2000/svg" width="64" height="64" fill="none" viewBox="0 0 64 64" role="img" aria-labelledby="title">
  <title id="title">Data Party Logistics port logo</title>
  <rect width="64" height="64" rx="18" fill="#0C0F0D"/>
  <circle cx="32" cy="32" r="25" fill="#1E201E"/>
  <path fill="#2F4865" d="M17 36h30v5H17z"/>
  <path fill="#94CCFF" d="M20 27h9v7h-9zm11 0h9v7h-9zm-6-9h11v7H25z"/>
  <path stroke="#E2E3DF" stroke-linecap="round" stroke-linejoin="round" stroke-width="3.2" d="M43 17v22M23 17h20l7 7M23 17l-5 7M26 17v8"/>
  <path stroke="#AFCAE9" stroke-linecap="round" stroke-width="3.2" d="M16 41h32M18 47c3.5 0 3.5 2 7 2s3.5-2 7-2 3.5 2 7 2 3.5-2 7-2"/>
  <path stroke="#0C0F0D" stroke-linecap="round" stroke-width="1.2" d="M23 30h3m8 0h3m-6-8h4"/>
</svg>
